@startuml

entity "TB_media_types" as e01{
* Id : INTEGER
Name : NVARCHAR(120)
}

entity "TB_genres" as e02{
* Id : INTEGER
Name : NVARCHAR(120)
}

entity "TB_playlists" as e03{
 * Id : INTEGER
 Name : NVARCHAR(120)
}

entity "TB_playlist_track" as e04{
* Id : INTEGER
* TrackId : INTEGER
}

entity "TB_tracks" as e05{
*Id : INTEGER
Name : NVARCHAR(200)
AlbumId : INTEGER
MediaTypeId : INTEGER
GenreId : INTEGER
Composer : NVARCHAR(220)
Milliseconds : INTEGER
Bytes : INTEGER
UnitPrice : NUMERIC
}

entity "TB_artists" as e06{

}

entity "TB_invoices" as e07{
*ld: INTEGER
Customerld: INTEGER
InvoiceDate: DATETIME
BillingAddress: NVAR... 
BillingCity: NVARCHA... 
}

entity "TB_invoice_items" as e08{
* ld: INTEGER
Invoiceld: INTEGER
Trackld: INTEGER
UnitPrice: NUMERIC
Quantity: INTEGER
}

entity "TB_albums" as e09{
*ld: INTEGER
Title: NVARCHAR(160)
Artistid: INTEGER
}

entity "TB_customers" as e10{
*Id: INTEGER
FirstName: NVARCHAR(40)
LastName: NVARCHAR(20)
Company: NVARCHAR(80)
Address: NVARCHAR(70)
City: NVARCHAR(40)
State: NVARCHAR(40)
Country: NVARCHAR(40)
PostalCode: NVARCHAR(10)
Phone: NVARCHAR(24)
Fax: NVARCHAR(24)
Email: NVARCHAR(60)
SupportRepld: INTEGER
}

entity "TB_employees" as e11{
Employeeld: INTEGER
LastName: NVARCHAR(20)
FirstName: NVARCHAR(20)
Title: NVARCHAR(30)
ReportsTo: INTEGER
BirthDate: DATETIME
HireDate: DATETIME
Address: NVARCHAR(70)
}

e01 ||--o{ e05
e02 |o--o{ e05
e03 ||--o| e04
e04 |o--|| e05
e05 ||--o{ e08
e05 }o--o| e09
e06 ||--o{ e09
e07 ||--o{ e08
e07 }o--|| e10
e10 }o--o| e11
e11 }o--o| e11 

@enduml
